# xmcd
#
# Track frame offsets:
#	150
#	21225
#	42375
#	63600
#	84750
#
# Disc length: 1419 seconds
#
# Revision: 1
# Processed by: cddbd v1.5.1PL0 Copyright (c) Steve Scherf et al.
# Submitted via: CDex 1.50Beta5
#
DISCID=38058905
DTITLE=Various Artist - Studio e.go! Vocal collection vol.2
DYEAR=1900
DGENRE=Unclassifiable
TTITLE0=たった一つの物語
TTITLE1=Full Moon Rhapsody
TTITLE2=Thank you for your love
TTITLE3=See Through Be True
TTITLE4=Promised Land
EXTD=
EXTT0=
EXTT1=
EXTT2=
EXTT3=
EXTT4=
PLAYORDER=
